<svg width="303" height="90" viewBox="0 0 303 90" fill="none" xmlns="http://www.w3.org/2000/svg">
<path d="M300.903 59.6282C301.479 60.6842 301.287 62.6042 299.559 62.6042H282.663C280.935 62.6042 280.743 60.6842 281.319 59.6282C281.799 58.9562 282.471 57.0362 282.471 54.2522V26.6042C282.471 24.0122 281.319 22.0922 280.839 21.4202V21.5162C280.071 20.4602 279.975 18.4442 282.183 17.9642L298.791 15.0842C300.807 14.7962 301.479 15.7562 301.191 17.3882L300.711 19.1162C300.231 20.5562 299.751 22.6682 299.751 26.0282V54.2522C299.751 57.0362 300.423 58.9562 300.903 59.6282ZM299.943 60.2042C299.463 59.4362 298.599 57.3242 298.599 54.2522V26.0282C298.599 22.6682 299.175 20.0762 299.655 18.5402L300.039 17.1962C300.135 16.6202 299.655 16.2362 298.983 16.2362L282.375 19.1162C281.415 19.4042 281.415 20.3642 281.799 20.8442C282.28 21.6122 283.623 23.7242 283.623 26.6042V54.2522C283.623 57.1322 282.759 59.3402 282.279 60.2042C282.087 60.6842 282.087 61.4522 282.663 61.4522H299.559C300.135 61.4522 300.135 60.6842 299.943 60.2042ZM290.823 15.4682C285.735 15.4682 282.279 13.4522 282.279 8.55624C282.279 3.75624 285.735 1.74023 290.823 1.74023C295.911 1.74023 299.271 3.75624 299.271 8.55624C299.271 13.4522 295.911 15.4682 290.823 15.4682ZM290.823 14.3162C295.143 14.3162 298.119 12.6842 298.119 8.55624C298.119 4.52423 295.143 2.89224 290.823 2.89224C286.503 2.89224 283.431 4.52423 283.431 8.55624C283.431 12.6842 286.503 14.3162 290.823 14.3162Z" fill="#FFFAFE"/>
<path d="M263.584 41.0045L264.064 40.3325C265.216 40.1405 266.272 40.0445 267.424 40.0445C274.528 40.0445 278.272 44.9405 278.272 50.1245C278.272 56.1725 273.376 62.6045 263.104 62.6045H245.056C236.512 62.6045 232.384 58.1885 232.384 53.0045C232.384 50.2205 233.536 47.1485 236.128 44.2685H236.032C242.368 36.3965 248.128 29.4845 254.464 21.6125H253.504C248.128 21.6125 243.616 26.7005 240.544 30.2525C239.296 31.5965 238.336 32.8445 237.856 33.1325C235.264 34.7645 231.328 33.9965 231.328 30.3485C231.328 27.8525 232.576 20.6525 232.576 20.6525C233.056 17.6765 233.728 15.0845 239.488 15.0845H273.472C276.256 15.0845 277.504 16.6205 277.504 18.5405C277.504 19.5965 277.12 21.0365 276.256 22.1885L253.312 50.4125C252.448 51.6605 251.872 52.8125 251.872 53.7725C251.872 55.1165 252.736 56.0765 254.176 56.0765C258.976 56.0765 264.736 46.6685 263.584 41.0045ZM267.424 41.1965C266.56 41.1965 265.696 41.2925 264.832 41.3885C265.696 47.7245 259.36 57.2285 254.176 57.2285C251.968 57.2285 250.72 55.6925 250.72 53.7725C250.72 52.5245 251.2 51.0845 252.352 49.6445L275.296 21.4205C275.872 20.4605 276.352 19.2125 276.352 18.5405C276.352 17.1965 275.488 16.2365 273.472 16.2365H239.488C234.88 16.2365 234.208 18.4445 233.728 20.8445C233.632 21.5165 232.48 28.1405 232.48 30.3485C232.48 32.9405 235.072 33.6125 236.704 32.5565H236.608C237.28 31.9805 238.336 30.9245 239.584 29.4845C242.848 25.7405 247.456 20.4605 253.504 20.4605H256.96L236.896 45.0365C234.592 47.6285 233.536 50.4125 233.536 53.0045C233.536 57.6125 237.28 61.4525 245.056 61.4525H263.104C272.608 61.4525 277.12 55.5965 277.12 50.1245C277.12 45.5165 273.76 41.1965 267.424 41.1965Z" fill="#FFFAFE"/>
<path d="M204.058 14.1245C217.594 14.1245 228.634 22.0925 228.634 38.7965C228.634 55.5005 217.594 63.5645 204.058 63.5645C190.618 63.5645 179.578 55.5005 179.578 38.7965C179.578 22.0925 190.618 14.1245 204.058 14.1245ZM204.058 15.2765C191.194 15.2765 180.73 22.8605 180.73 38.7965C180.73 54.7325 191.194 62.4125 204.058 62.4125C217.018 62.4125 227.482 54.7325 227.482 38.7965C227.482 22.8605 217.018 15.2765 204.058 15.2765ZM204.058 57.0365C208.09 57.0365 209.434 48.8765 209.434 38.7965C209.434 28.8125 208.09 20.6525 204.058 20.6525C200.122 20.6525 198.778 28.7165 198.778 38.7965C198.778 48.8765 200.122 57.0365 204.058 57.0365ZM204.058 58.1885C199.354 58.1885 197.626 49.4525 197.626 38.7965C197.626 28.1405 199.354 19.5005 204.058 19.5005C208.858 19.5005 210.586 28.2365 210.586 38.7965C210.586 49.4525 208.858 58.1885 204.058 58.1885Z" fill="#FFFAFE"/>
<path d="M180.016 15.0845C181.84 15.0845 182.224 16.9085 181.072 18.0605H181.168C180.592 18.8285 179.248 20.8445 178.192 23.5325L162.736 70.6685C158.896 82.0925 154.288 88.2365 143.344 88.2365C135.088 88.2365 130.384 82.4765 130.384 75.9485C130.384 72.3965 132.016 68.3645 135.472 64.9085C139.408 67.6925 144.016 69.3245 147.952 69.3245C152.368 69.3245 156.592 67.2125 158.32 62.7005V62.6045H155.92C152.464 62.6045 149.104 60.4925 146.992 54.4445C146.992 54.4445 137.584 25.7405 136.816 23.5325C135.856 20.7485 134.512 18.8285 133.84 18.0605C132.88 16.9085 133.168 15.0845 134.992 15.0845H153.904C155.632 15.0845 155.824 16.3325 155.44 17.7725C155.44 17.8685 155.536 18.0605 155.344 18.2525C154.96 19.2125 154.192 20.8445 154.96 23.1485L156.976 29.1965L163.216 48.1085L167.824 34.0925C168.304 32.5565 168.496 31.0205 168.496 29.7725C168.496 23.8205 164.752 20.2685 162.448 18.0605V18.1565C161.296 17.1005 161.872 15.0845 163.6 15.0845H180.016ZM180.016 16.2365H163.6C163.024 16.2365 162.832 16.9085 163.216 17.2925C165.712 19.6925 169.648 23.4365 169.648 29.7725C169.648 31.2125 169.456 32.8445 168.976 34.4765L163.216 51.9485L155.824 29.5805L153.808 23.5325C153.04 20.9405 153.808 18.9245 154.192 17.8685C154.288 17.7725 154.288 17.6765 154.288 17.5805C154.48 16.8125 154.48 16.2365 153.904 16.2365H134.992C134.416 16.2365 134.416 16.9085 134.8 17.2925C135.472 18.0605 137.008 20.2685 137.968 23.1485C138.928 25.9325 148.144 54.0605 148.144 54.0605C150.064 59.2445 153.04 61.4525 155.92 61.4525H160.144L159.472 63.0845C157.552 68.2685 152.944 70.4765 147.952 70.4765C143.824 70.4765 139.408 69.0365 135.568 66.3485C132.784 69.2285 131.536 72.6845 131.536 75.9485C131.536 81.9005 135.856 87.0845 143.344 87.0845C153.328 87.0845 158.032 80.6525 161.584 70.2845L177.04 23.1485C178.096 20.0765 179.44 18.3485 179.92 17.6765C180.496 17.1005 180.592 16.2365 180.016 16.2365Z" fill="#FFFAFE"/>
<path d="M131.927 59.6285C132.503 60.6845 132.407 62.6045 130.583 62.6045H113.687C112.151 62.6045 111.863 60.6845 112.439 59.6285C112.823 58.9565 113.495 57.0365 113.495 54.2525V34.2845C113.495 29.4845 110.807 27.8525 107.735 27.8525C105.527 27.8525 103.223 28.6205 101.495 29.6765V54.2525C101.495 57.0365 102.167 58.9565 102.551 59.6285C103.127 60.6845 102.839 62.6045 101.303 62.6045H84.407C82.487 62.6045 82.487 60.6845 83.063 59.6285C83.447 59.0525 84.215 57.1325 84.215 54.2525V20.0765C81.047 22.4765 74.999 25.5485 68.951 25.5485C67.127 25.5485 65.207 25.2605 63.479 24.6845C59.255 23.1485 57.047 19.7885 57.047 16.4285C57.047 11.7245 60.887 7.02051 67.895 7.02051C68.951 7.02051 70.295 7.11651 72.215 7.59651C70.007 14.3165 77.975 15.7565 86.039 15.7565C89.975 15.7565 93.911 15.4685 96.791 15.2765C98.519 15.1805 99.767 15.0845 100.535 15.0845C102.359 14.8925 103.223 15.8525 102.935 17.3885L102.455 19.1165C102.071 20.3645 101.591 22.0925 101.495 24.5885C104.183 20.0765 110.135 15.0845 116.951 15.0845C125.111 15.0845 130.775 21.1325 130.775 29.9645V54.2525C130.775 57.1325 131.543 59.0525 131.927 59.6285ZM130.967 60.2045C130.583 59.5325 129.623 57.4205 129.623 54.2525V29.9645C129.623 21.9005 124.343 16.2365 116.951 16.2365C109.559 16.2365 103.127 22.9565 101.399 27.4685H100.343V26.0285C100.343 22.6685 100.919 20.0765 101.399 18.5405L101.783 17.1965C101.879 16.5245 101.591 16.1405 100.727 16.2365C99.959 16.2365 98.519 16.3325 96.791 16.4285C93.911 16.6205 89.975 16.9085 86.039 16.9085C77.495 16.9085 69.047 15.2765 70.679 8.36451C69.719 8.17251 68.759 8.17251 67.895 8.17251C61.655 8.17251 58.199 12.3005 58.199 16.4285C58.199 19.4045 60.023 22.2845 63.863 23.5325C65.591 24.1085 67.319 24.3965 68.951 24.3965C75.575 24.3965 82.487 20.3645 85.367 17.6765V54.2525C85.367 57.2285 84.407 59.4365 84.023 60.2045C83.831 60.6845 83.831 61.4525 84.407 61.4525H101.303C101.879 61.4525 101.879 60.6845 101.591 60.2045C101.207 59.4365 100.343 57.3245 100.343 54.2525V29.1005C102.455 27.6605 105.239 26.7005 107.735 26.7005C111.383 26.7005 114.647 28.7165 114.647 34.2845V54.2525C114.647 57.3245 113.783 59.4365 113.399 60.2045C113.111 60.6845 113.111 61.4525 113.687 61.4525H130.583C131.159 61.4525 131.159 60.6845 130.967 60.2045ZM76.631 26.5085C78.551 26.2205 79.319 27.1805 79.031 28.8125L78.551 30.5405C78.071 31.9805 77.591 34.0925 77.591 37.4525V54.2525C77.591 57.0365 78.263 58.9565 78.647 59.6285C79.223 60.6845 78.935 62.6045 77.399 62.6045H60.503C58.679 62.6045 58.487 60.6845 59.159 59.6285C59.543 59.0525 60.311 57.1325 60.311 54.2525V38.0285C60.311 35.3405 59.159 33.4205 58.679 32.9405C57.719 31.8845 57.815 29.7725 60.023 29.3885L76.631 26.5085ZM76.823 27.6605L60.215 30.5405C59.255 30.8285 59.255 31.6925 59.639 32.1725C60.119 32.7485 61.463 34.8605 61.463 38.0285V54.2525C61.463 57.4205 60.503 59.5325 60.119 60.2045C59.831 60.6845 59.831 61.4525 60.503 61.4525H77.399C77.975 61.4525 77.975 60.6845 77.687 60.2045C77.303 59.4365 76.439 57.3245 76.439 54.2525V37.4525C76.439 34.0925 77.015 31.5005 77.495 29.9645L77.879 28.6205C77.975 28.0445 77.495 27.6605 76.823 27.6605Z" fill="#FFFAFE"/>
<path d="M49.1654 51.9485C50.7014 56.1725 52.4294 57.8045 53.2934 58.6685L53.7734 59.1485C54.6374 60.2045 55.2134 62.6045 52.4294 62.6045H29.4854C27.8534 62.6045 27.2774 61.0685 27.3734 60.0125C27.4694 59.4365 27.7574 58.7645 28.0454 58.0925L27.9494 58.1885C28.5254 56.8445 29.3894 55.2125 29.3894 51.0845C29.3894 47.9165 29.3894 39.0845 27.5654 35.7245C25.9334 37.8365 24.0134 39.9485 22.3814 42.0605V52.1405C22.3814 56.0765 23.5334 58.2845 24.2054 59.2445C24.3974 59.4365 24.5894 59.6285 24.5894 59.8205C25.1654 60.8765 24.7814 62.6045 23.2454 62.6045H3.08537C1.45337 62.6045 1.16537 60.6845 1.83737 59.6285L1.74137 59.9165C1.74137 60.1085 2.02937 59.4365 2.12537 59.2445C2.79737 58.2845 3.94937 56.0765 3.94937 52.1405V13.5485C3.94937 9.51648 2.79737 7.40447 2.12537 6.54047C2.02937 6.44448 1.83737 6.15647 1.83737 6.06047C1.16537 5.00448 1.45337 3.08447 3.08537 3.08447H23.2454C24.8774 3.08447 25.1654 5.00448 24.4934 6.06047L24.1094 6.63647C23.4374 7.50047 22.3814 9.51648 22.3814 13.5485V31.5005L33.9014 17.1965C34.7654 15.9485 35.2454 14.7005 35.2454 13.6445C35.2454 11.1485 33.8054 8.94047 32.7494 7.40447L31.7894 5.77247C31.1174 4.14048 32.3654 3.08447 33.9974 3.08447H52.7174C55.1174 3.08447 55.3094 4.90847 53.2934 6.25247L53.3894 6.15647L52.9094 6.54047C51.6614 7.40447 48.5894 9.61247 44.9414 13.9325L31.7894 30.4445C32.5574 30.2525 33.0374 30.2525 33.9974 30.2525C37.5494 30.2525 42.3494 32.6525 44.9414 40.5245L49.1654 51.9485ZM48.0134 52.3325L43.7894 40.9085C41.3894 33.1325 37.2614 31.4045 33.9974 31.4045C32.2694 31.4045 30.8294 31.7885 29.9654 32.1725L29.3894 31.4045L43.9814 13.1645C47.6294 8.74847 50.8934 6.44448 52.3334 5.58047L52.2374 5.67647L52.7174 5.29247C53.3894 4.81247 53.3894 4.23647 52.7174 4.23647H33.9974C33.2294 4.23647 32.6534 4.71647 32.9414 5.48448C33.0374 5.86847 33.3254 6.15647 33.7094 6.82848C34.7654 8.46047 36.3974 10.8605 36.3974 13.6445C36.3974 15.0845 36.0134 16.5245 34.8614 17.9645L21.2294 34.9565V13.5485C21.2294 9.03648 22.5734 6.92447 23.2454 5.96448L23.6294 5.38847L23.5334 5.48448C23.8214 5.00448 23.8214 4.23647 23.2454 4.23647H3.08537C2.60537 4.23647 2.60537 5.00448 2.79737 5.48448L3.08537 5.96448C3.75737 6.92447 5.10137 9.03648 5.10137 13.5485V52.1405C5.10137 56.7485 3.56537 58.9565 2.98937 59.9165L2.89337 60.0125C2.60537 60.4925 2.50937 61.4525 3.08537 61.4525H23.2454C23.8214 61.4525 23.7254 60.4925 23.4374 60.0125C23.4374 60.0125 23.3414 60.0125 23.3414 59.9165C22.7654 59.0525 21.2294 56.8445 21.2294 52.1405V41.5805L27.5654 33.6125C30.5414 35.9165 30.5414 47.5325 30.5414 51.0845C30.5414 55.5005 29.5814 57.2285 29.0054 58.6685C28.7174 59.1485 28.6214 59.6285 28.5254 60.2045C28.4294 60.6845 28.7174 61.4525 29.4854 61.4525H52.4294C53.5814 61.4525 53.2934 60.3965 52.9094 59.9165H53.0054L52.5254 59.4365C51.4694 58.3805 49.5494 56.5565 48.0134 52.3325Z" fill="#FFFAFE"/>
<path d="M300.903 59.6282C301.479 60.6842 301.287 62.6042 299.559 62.6042H282.663C280.935 62.6042 280.743 60.6842 281.319 59.6282C281.799 58.9562 282.471 57.0362 282.471 54.2522V26.6042C282.471 24.0122 281.319 22.0922 280.839 21.4202V21.5162C280.071 20.4602 279.975 18.4442 282.183 17.9642L298.791 15.0842C300.807 14.7962 301.479 15.7562 301.191 17.3882L300.711 19.1162C300.231 20.5562 299.751 22.6682 299.751 26.0282V54.2522C299.751 57.0362 300.423 58.9562 300.903 59.6282ZM299.943 60.2042C299.463 59.4362 298.599 57.3242 298.599 54.2522V26.0282C298.599 22.6682 299.175 20.0762 299.655 18.5402L300.039 17.1962C300.135 16.6202 299.655 16.2362 298.983 16.2362L282.375 19.1162C281.415 19.4042 281.415 20.3642 281.799 20.8442C282.28 21.6122 283.623 23.7242 283.623 26.6042V54.2522C283.623 57.1322 282.759 59.3402 282.279 60.2042C282.087 60.6842 282.087 61.4522 282.663 61.4522H299.559C300.135 61.4522 300.135 60.6842 299.943 60.2042ZM290.823 15.4682C285.735 15.4682 282.279 13.4522 282.279 8.55624C282.279 3.75624 285.735 1.74023 290.823 1.74023C295.911 1.74023 299.271 3.75624 299.271 8.55624C299.271 13.4522 295.911 15.4682 290.823 15.4682ZM290.823 14.3162C295.143 14.3162 298.119 12.6842 298.119 8.55624C298.119 4.52423 295.143 2.89224 290.823 2.89224C286.503 2.89224 283.431 4.52423 283.431 8.55624C283.431 12.6842 286.503 14.3162 290.823 14.3162Z" stroke="#FFE2A7" stroke-width="2"/>
<path d="M263.584 41.0045L264.064 40.3325C265.216 40.1405 266.272 40.0445 267.424 40.0445C274.528 40.0445 278.272 44.9405 278.272 50.1245C278.272 56.1725 273.376 62.6045 263.104 62.6045H245.056C236.512 62.6045 232.384 58.1885 232.384 53.0045C232.384 50.2205 233.536 47.1485 236.128 44.2685H236.032C242.368 36.3965 248.128 29.4845 254.464 21.6125H253.504C248.128 21.6125 243.616 26.7005 240.544 30.2525C239.296 31.5965 238.336 32.8445 237.856 33.1325C235.264 34.7645 231.328 33.9965 231.328 30.3485C231.328 27.8525 232.576 20.6525 232.576 20.6525C233.056 17.6765 233.728 15.0845 239.488 15.0845H273.472C276.256 15.0845 277.504 16.6205 277.504 18.5405C277.504 19.5965 277.12 21.0365 276.256 22.1885L253.312 50.4125C252.448 51.6605 251.872 52.8125 251.872 53.7725C251.872 55.1165 252.736 56.0765 254.176 56.0765C258.976 56.0765 264.736 46.6685 263.584 41.0045ZM267.424 41.1965C266.56 41.1965 265.696 41.2925 264.832 41.3885C265.696 47.7245 259.36 57.2285 254.176 57.2285C251.968 57.2285 250.72 55.6925 250.72 53.7725C250.72 52.5245 251.2 51.0845 252.352 49.6445L275.296 21.4205C275.872 20.4605 276.352 19.2125 276.352 18.5405C276.352 17.1965 275.488 16.2365 273.472 16.2365H239.488C234.88 16.2365 234.208 18.4445 233.728 20.8445C233.632 21.5165 232.48 28.1405 232.48 30.3485C232.48 32.9405 235.072 33.6125 236.704 32.5565H236.608C237.28 31.9805 238.336 30.9245 239.584 29.4845C242.848 25.7405 247.456 20.4605 253.504 20.4605H256.96L236.896 45.0365C234.592 47.6285 233.536 50.4125 233.536 53.0045C233.536 57.6125 237.28 61.4525 245.056 61.4525H263.104C272.608 61.4525 277.12 55.5965 277.12 50.1245C277.12 45.5165 273.76 41.1965 267.424 41.1965Z" stroke="#FFE2A7" stroke-width="2"/>
<path d="M204.058 14.1245C217.594 14.1245 228.634 22.0925 228.634 38.7965C228.634 55.5005 217.594 63.5645 204.058 63.5645C190.618 63.5645 179.578 55.5005 179.578 38.7965C179.578 22.0925 190.618 14.1245 204.058 14.1245ZM204.058 15.2765C191.194 15.2765 180.73 22.8605 180.73 38.7965C180.73 54.7325 191.194 62.4125 204.058 62.4125C217.018 62.4125 227.482 54.7325 227.482 38.7965C227.482 22.8605 217.018 15.2765 204.058 15.2765ZM204.058 57.0365C208.09 57.0365 209.434 48.8765 209.434 38.7965C209.434 28.8125 208.09 20.6525 204.058 20.6525C200.122 20.6525 198.778 28.7165 198.778 38.7965C198.778 48.8765 200.122 57.0365 204.058 57.0365ZM204.058 58.1885C199.354 58.1885 197.626 49.4525 197.626 38.7965C197.626 28.1405 199.354 19.5005 204.058 19.5005C208.858 19.5005 210.586 28.2365 210.586 38.7965C210.586 49.4525 208.858 58.1885 204.058 58.1885Z" stroke="#FFE2A7" stroke-width="2"/>
<path d="M180.016 15.0845C181.84 15.0845 182.224 16.9085 181.072 18.0605H181.168C180.592 18.8285 179.248 20.8445 178.192 23.5325L162.736 70.6685C158.896 82.0925 154.288 88.2365 143.344 88.2365C135.088 88.2365 130.384 82.4765 130.384 75.9485C130.384 72.3965 132.016 68.3645 135.472 64.9085C139.408 67.6925 144.016 69.3245 147.952 69.3245C152.368 69.3245 156.592 67.2125 158.32 62.7005V62.6045H155.92C152.464 62.6045 149.104 60.4925 146.992 54.4445C146.992 54.4445 137.584 25.7405 136.816 23.5325C135.856 20.7485 134.512 18.8285 133.84 18.0605C132.88 16.9085 133.168 15.0845 134.992 15.0845H153.904C155.632 15.0845 155.824 16.3325 155.44 17.7725C155.44 17.8685 155.536 18.0605 155.344 18.2525C154.96 19.2125 154.192 20.8445 154.96 23.1485L156.976 29.1965L163.216 48.1085L167.824 34.0925C168.304 32.5565 168.496 31.0205 168.496 29.7725C168.496 23.8205 164.752 20.2685 162.448 18.0605V18.1565C161.296 17.1005 161.872 15.0845 163.6 15.0845H180.016ZM180.016 16.2365H163.6C163.024 16.2365 162.832 16.9085 163.216 17.2925C165.712 19.6925 169.648 23.4365 169.648 29.7725C169.648 31.2125 169.456 32.8445 168.976 34.4765L163.216 51.9485L155.824 29.5805L153.808 23.5325C153.04 20.9405 153.808 18.9245 154.192 17.8685C154.288 17.7725 154.288 17.6765 154.288 17.5805C154.48 16.8125 154.48 16.2365 153.904 16.2365H134.992C134.416 16.2365 134.416 16.9085 134.8 17.2925C135.472 18.0605 137.008 20.2685 137.968 23.1485C138.928 25.9325 148.144 54.0605 148.144 54.0605C150.064 59.2445 153.04 61.4525 155.92 61.4525H160.144L159.472 63.0845C157.552 68.2685 152.944 70.4765 147.952 70.4765C143.824 70.4765 139.408 69.0365 135.568 66.3485C132.784 69.2285 131.536 72.6845 131.536 75.9485C131.536 81.9005 135.856 87.0845 143.344 87.0845C153.328 87.0845 158.032 80.6525 161.584 70.2845L177.04 23.1485C178.096 20.0765 179.44 18.3485 179.92 17.6765C180.496 17.1005 180.592 16.2365 180.016 16.2365Z" stroke="#FFE2A7" stroke-width="2"/>
<path d="M131.927 59.6285C132.503 60.6845 132.407 62.6045 130.583 62.6045H113.687C112.151 62.6045 111.863 60.6845 112.439 59.6285C112.823 58.9565 113.495 57.0365 113.495 54.2525V34.2845C113.495 29.4845 110.807 27.8525 107.735 27.8525C105.527 27.8525 103.223 28.6205 101.495 29.6765V54.2525C101.495 57.0365 102.167 58.9565 102.551 59.6285C103.127 60.6845 102.839 62.6045 101.303 62.6045H84.407C82.487 62.6045 82.487 60.6845 83.063 59.6285C83.447 59.0525 84.215 57.1325 84.215 54.2525V20.0765C81.047 22.4765 74.999 25.5485 68.951 25.5485C67.127 25.5485 65.207 25.2605 63.479 24.6845C59.255 23.1485 57.047 19.7885 57.047 16.4285C57.047 11.7245 60.887 7.02051 67.895 7.02051C68.951 7.02051 70.295 7.11651 72.215 7.59651C70.007 14.3165 77.975 15.7565 86.039 15.7565C89.975 15.7565 93.911 15.4685 96.791 15.2765C98.519 15.1805 99.767 15.0845 100.535 15.0845C102.359 14.8925 103.223 15.8525 102.935 17.3885L102.455 19.1165C102.071 20.3645 101.591 22.0925 101.495 24.5885C104.183 20.0765 110.135 15.0845 116.951 15.0845C125.111 15.0845 130.775 21.1325 130.775 29.9645V54.2525C130.775 57.1325 131.543 59.0525 131.927 59.6285ZM130.967 60.2045C130.583 59.5325 129.623 57.4205 129.623 54.2525V29.9645C129.623 21.9005 124.343 16.2365 116.951 16.2365C109.559 16.2365 103.127 22.9565 101.399 27.4685H100.343V26.0285C100.343 22.6685 100.919 20.0765 101.399 18.5405L101.783 17.1965C101.879 16.5245 101.591 16.1405 100.727 16.2365C99.959 16.2365 98.519 16.3325 96.791 16.4285C93.911 16.6205 89.975 16.9085 86.039 16.9085C77.495 16.9085 69.047 15.2765 70.679 8.36451C69.719 8.17251 68.759 8.17251 67.895 8.17251C61.655 8.17251 58.199 12.3005 58.199 16.4285C58.199 19.4045 60.023 22.2845 63.863 23.5325C65.591 24.1085 67.319 24.3965 68.951 24.3965C75.575 24.3965 82.487 20.3645 85.367 17.6765V54.2525C85.367 57.2285 84.407 59.4365 84.023 60.2045C83.831 60.6845 83.831 61.4525 84.407 61.4525H101.303C101.879 61.4525 101.879 60.6845 101.591 60.2045C101.207 59.4365 100.343 57.3245 100.343 54.2525V29.1005C102.455 27.6605 105.239 26.7005 107.735 26.7005C111.383 26.7005 114.647 28.7165 114.647 34.2845V54.2525C114.647 57.3245 113.783 59.4365 113.399 60.2045C113.111 60.6845 113.111 61.4525 113.687 61.4525H130.583C131.159 61.4525 131.159 60.6845 130.967 60.2045ZM76.631 26.5085C78.551 26.2205 79.319 27.1805 79.031 28.8125L78.551 30.5405C78.071 31.9805 77.591 34.0925 77.591 37.4525V54.2525C77.591 57.0365 78.263 58.9565 78.647 59.6285C79.223 60.6845 78.935 62.6045 77.399 62.6045H60.503C58.679 62.6045 58.487 60.6845 59.159 59.6285C59.543 59.0525 60.311 57.1325 60.311 54.2525V38.0285C60.311 35.3405 59.159 33.4205 58.679 32.9405C57.719 31.8845 57.815 29.7725 60.023 29.3885L76.631 26.5085ZM76.823 27.6605L60.215 30.5405C59.255 30.8285 59.255 31.6925 59.639 32.1725C60.119 32.7485 61.463 34.8605 61.463 38.0285V54.2525C61.463 57.4205 60.503 59.5325 60.119 60.2045C59.831 60.6845 59.831 61.4525 60.503 61.4525H77.399C77.975 61.4525 77.975 60.6845 77.687 60.2045C77.303 59.4365 76.439 57.3245 76.439 54.2525V37.4525C76.439 34.0925 77.015 31.5005 77.495 29.9645L77.879 28.6205C77.975 28.0445 77.495 27.6605 76.823 27.6605Z" stroke="#FFE2A7" stroke-width="2"/>
<path d="M49.1654 51.9485C50.7014 56.1725 52.4294 57.8045 53.2934 58.6685L53.7734 59.1485C54.6374 60.2045 55.2134 62.6045 52.4294 62.6045H29.4854C27.8534 62.6045 27.2774 61.0685 27.3734 60.0125C27.4694 59.4365 27.7574 58.7645 28.0454 58.0925L27.9494 58.1885C28.5254 56.8445 29.3894 55.2125 29.3894 51.0845C29.3894 47.9165 29.3894 39.0845 27.5654 35.7245C25.9334 37.8365 24.0134 39.9485 22.3814 42.0605V52.1405C22.3814 56.0765 23.5334 58.2845 24.2054 59.2445C24.3974 59.4365 24.5894 59.6285 24.5894 59.8205C25.1654 60.8765 24.7814 62.6045 23.2454 62.6045H3.08537C1.45337 62.6045 1.16537 60.6845 1.83737 59.6285L1.74137 59.9165C1.74137 60.1085 2.02937 59.4365 2.12537 59.2445C2.79737 58.2845 3.94937 56.0765 3.94937 52.1405V13.5485C3.94937 9.51648 2.79737 7.40447 2.12537 6.54047C2.02937 6.44448 1.83737 6.15647 1.83737 6.06047C1.16537 5.00448 1.45337 3.08447 3.08537 3.08447H23.2454C24.8774 3.08447 25.1654 5.00448 24.4934 6.06047L24.1094 6.63647C23.4374 7.50047 22.3814 9.51648 22.3814 13.5485V31.5005L33.9014 17.1965C34.7654 15.9485 35.2454 14.7005 35.2454 13.6445C35.2454 11.1485 33.8054 8.94047 32.7494 7.40447L31.7894 5.77247C31.1174 4.14048 32.3654 3.08447 33.9974 3.08447H52.7174C55.1174 3.08447 55.3094 4.90847 53.2934 6.25247L53.3894 6.15647L52.9094 6.54047C51.6614 7.40447 48.5894 9.61247 44.9414 13.9325L31.7894 30.4445C32.5574 30.2525 33.0374 30.2525 33.9974 30.2525C37.5494 30.2525 42.3494 32.6525 44.9414 40.5245L49.1654 51.9485ZM48.0134 52.3325L43.7894 40.9085C41.3894 33.1325 37.2614 31.4045 33.9974 31.4045C32.2694 31.4045 30.8294 31.7885 29.9654 32.1725L29.3894 31.4045L43.9814 13.1645C47.6294 8.74847 50.8934 6.44448 52.3334 5.58047L52.2374 5.67647L52.7174 5.29247C53.3894 4.81247 53.3894 4.23647 52.7174 4.23647H33.9974C33.2294 4.23647 32.6534 4.71647 32.9414 5.48448C33.0374 5.86847 33.3254 6.15647 33.7094 6.82848C34.7654 8.46047 36.3974 10.8605 36.3974 13.6445C36.3974 15.0845 36.0134 16.5245 34.8614 17.9645L21.2294 34.9565V13.5485C21.2294 9.03648 22.5734 6.92447 23.2454 5.96448L23.6294 5.38847L23.5334 5.48448C23.8214 5.00448 23.8214 4.23647 23.2454 4.23647H3.08537C2.60537 4.23647 2.60537 5.00448 2.79737 5.48448L3.08537 5.96448C3.75737 6.92447 5.10137 9.03648 5.10137 13.5485V52.1405C5.10137 56.7485 3.56537 58.9565 2.98937 59.9165L2.89337 60.0125C2.60537 60.4925 2.50937 61.4525 3.08537 61.4525H23.2454C23.8214 61.4525 23.7254 60.4925 23.4374 60.0125C23.4374 60.0125 23.3414 60.0125 23.3414 59.9165C22.7654 59.0525 21.2294 56.8445 21.2294 52.1405V41.5805L27.5654 33.6125C30.5414 35.9165 30.5414 47.5325 30.5414 51.0845C30.5414 55.5005 29.5814 57.2285 29.0054 58.6685C28.7174 59.1485 28.6214 59.6285 28.5254 60.2045C28.4294 60.6845 28.7174 61.4525 29.4854 61.4525H52.4294C53.5814 61.4525 53.2934 60.3965 52.9094 59.9165H53.0054L52.5254 59.4365C51.4694 58.3805 49.5494 56.5565 48.0134 52.3325Z" stroke="#FFE2A7" stroke-width="2"/>
</svg>
